<?xml version="1.0" encoding="UTF-8" standalone="no"?>
<!-- Created with Inkscape (http://www.inkscape.org/) -->
<svg
   xmlns:svg="http://www.w3.org/2000/svg"
   xmlns="http://www.w3.org/2000/svg"
   version="1.0"
   width="600.00012"
   height="600"
   id="svg2">
  <defs
     id="defs4" />
  <g
     transform="translate(-359.99979,-443.9532)"
     id="layer1">
    <path
       d="M 397.49977,443.9532 L 922.49982,443.9532 C 943.2749,443.9532 959.9999,460.6782 959.9999,481.45317 L 959.9999,1006.4532 C 959.9999,1027.2282 943.2749,1043.9532 922.49982,1043.9532 L 397.49977,1043.9532 C 376.72477,1043.9532 359.99979,1027.2282 359.99979,1006.4532 L 359.99979,481.45317 C 359.99979,460.6782 376.72477,443.9532 397.49977,443.9532 z"
       id="rect1873"
       style="fill:#000000" />
    <g
       transform="matrix(0.2777778,0,0,0.2777778,-259.88623,446.91612)"
       id="g2448">
      <path
         d="M 3311.5869,101.83257 C 3097.0554,101.83257 2984.8848,145.58308 2850.998,244.15739 C 2706.7787,350.33899 2540.6385,418.07141 2344.0869,418.41436 L 2344.0869,1559.4099 C 2344.0869,1660.764 2344.2308,1660.7821 2396.2385,1712.043 C 2487.1109,1801.6108 3311.5869,2036.8326 3311.5869,2036.8326 C 3311.5869,2036.8326 4136.0629,1801.6108 4226.9353,1712.043 C 4278.943,1660.7821 4279.0869,1660.764 4279.0869,1559.4099 L 4279.0869,418.41438 C 4082.5353,418.07143 3914.951,352.50396 3772.1758,244.15741 C 3644.7748,147.47774 3526.1184,101.83257 3311.5869,101.83257 z"
         id="path2452"
         style="fill:#ffffff;fill-opacity:1;stroke:none;stroke-width:22.5;stroke-linecap:square;stroke-linejoin:round;stroke-miterlimit:2;stroke-dasharray:none;stroke-dashoffset:0;stroke-opacity:1" />
    </g>
    <path
       d="M 664.63238,686.46892 C 664.63215,706.35389 661.96516,726.16611 656.63141,745.90562 C 651.29722,765.64542 643.73159,784.59356 633.93452,802.75009 C 624.13705,820.90679 612.3236,837.76399 598.49412,853.32175 C 584.66433,868.87957 569.39017,882.42338 552.6716,893.95321 L 530.62771,855.0499 C 539.27279,848.13732 546.98133,841.43797 553.75334,834.95184 C 560.52513,828.46582 566.64843,821.76427 572.12325,814.84718 C 577.5978,807.93024 582.64155,800.58229 587.25451,792.8033 C 591.86717,785.0245 596.33267,776.37713 600.65102,766.86117 C 592.29591,768.30362 585.88459,769.3128 581.41704,769.88874 C 576.9492,770.46491 571.83509,770.75293 566.0747,770.75282 C 552.53077,770.75293 539.77848,768.44873 527.81781,763.84019 C 515.85695,759.2319 505.40888,752.96569 496.47354,745.04154 C 487.53809,737.11768 480.47816,727.75135 475.29373,716.94251 C 470.10923,706.13403 467.517,694.67896 467.51703,682.57727 C 467.517,670.18577 470.10923,658.58559 475.29373,647.77669 C 480.47816,636.96827 487.46553,627.60193 496.25587,619.67766 C 505.04609,611.75392 515.42162,605.48551 527.38247,600.87242 C 539.34315,596.2599 552.24054,593.95349 566.0747,593.9532 C 579.90861,593.95349 592.87636,596.33245 604.97801,601.09009 C 617.07932,605.8483 627.5252,612.33217 636.31568,620.54174 C 645.10576,628.75184 652.02278,638.47656 657.06675,649.71592 C 662.11028,660.95576 664.63215,673.20675 664.63238,686.46892 L 664.63238,686.46892 z M 618.80326,682.57727 C 618.80308,677.09839 617.36295,671.76442 614.48286,666.57534 C 611.60243,661.3867 607.78554,656.919 603.03218,653.17223 C 598.27849,649.42593 592.73125,646.40056 586.39043,644.09611 C 580.04932,641.79215 573.27742,640.64005 566.0747,640.6398 C 558.87173,640.64005 552.17239,641.72179 545.97664,643.88504 C 539.78068,646.04878 534.30379,649.00379 529.54596,652.75008 C 524.78795,656.49685 521.04142,660.96235 518.30635,666.14659 C 515.57113,671.33128 514.20355,676.80817 514.20363,682.57727 C 514.20355,688.33799 515.57113,693.74012 518.30635,698.78368 C 521.04142,703.82762 524.78795,708.22276 529.54596,711.96912 C 534.30379,715.71583 539.78068,718.66864 545.97664,720.82757 C 552.17239,722.98683 558.87173,724.06638 566.0747,724.06621 C 573.27742,724.06638 580.12188,722.98683 586.6081,720.82757 C 593.09403,718.66864 598.71383,715.71583 603.46752,711.96912 C 608.22088,708.22276 611.96521,703.82762 614.70053,698.78368 C 617.4355,693.74012 618.80308,688.33799 618.80326,682.57727 L 618.80326,682.57727 z M 826.03167,888.76874 L 787.12706,808.44208 L 748.23343,888.76874 L 704.99753,888.76874 L 765.16282,764.12886 L 709.32882,647.41501 L 752.55372,647.41501 L 787.12706,719.46385 L 821.71138,647.41501 L 864.93629,647.41501 L 808.38773,764.12886 L 869.26757,888.76874 L 826.03167,888.76874 z"
       id="text1421"
       style="font-size:432.27651978px;font-style:normal;font-variant:normal;font-weight:normal;font-stretch:normal;text-align:center;line-height:125%;writing-mode:lr-tb;text-anchor:middle;fill:#000000;fill-opacity:1;stroke:none;stroke-width:1px;stroke-linecap:butt;stroke-linejoin:miter;stroke-opacity:1;font-family:Roadgeek 2005 Series D;-inkscape-font-specification:Roadgeek 2005 Series D" />
  </g>
</svg>
